<svg xmlns="http://www.w3.org/2000/svg" width="384" height="521" fill="none" viewBox="0 0 384 521"><path fill="#fff" d="M90.75 466.859H62.1094V497H53.1094V428.75H95.3906V436.156H62.1094V459.5H90.75V466.859ZM114.234 497H105.562V446.281H114.234V497ZM104.859 432.828C104.859 431.422 105.281 430.234 106.125 429.266C107 428.297 108.281 427.812 109.969 427.812C111.656 427.812 112.938 428.297 113.812 429.266C114.688 430.234 115.125 431.422 115.125 432.828C115.125 434.234 114.688 435.406 113.812 436.344C112.938 437.281 111.656 437.75 109.969 437.75C108.281 437.75 107 437.281 106.125 436.344C105.281 435.406 104.859 434.234 104.859 432.828ZM152.672 454.062C151.359 453.844 149.938 453.734 148.406 453.734C142.719 453.734 138.859 456.156 136.828 461V497H128.156V446.281H136.594L136.734 452.141C139.578 447.609 143.609 445.344 148.828 445.344C150.516 445.344 151.797 445.562 152.672 446V454.062ZM180.797 497.938C173.922 497.938 168.328 495.688 164.016 491.188C159.703 486.656 157.547 480.609 157.547 473.047V471.453C157.547 466.422 158.5 461.938 160.406 458C162.344 454.031 165.031 450.938 168.469 448.719C171.938 446.469 175.688 445.344 179.719 445.344C186.312 445.344 191.438 447.516 195.094 451.859C198.75 456.203 200.578 462.422 200.578 470.516V474.125H166.219C166.344 479.125 167.797 483.172 170.578 486.266C173.391 489.328 176.953 490.859 181.266 490.859C184.328 490.859 186.922 490.234 189.047 488.984C191.172 487.734 193.031 486.078 194.625 484.016L199.922 488.141C195.672 494.672 189.297 497.938 180.797 497.938ZM179.719 452.469C176.219 452.469 173.281 453.75 170.906 456.312C168.531 458.844 167.062 462.406 166.5 467H191.906V466.344C191.656 461.938 190.469 458.531 188.344 456.125C186.219 453.688 183.344 452.469 179.719 452.469ZM214.922 497V452.984H206.906V446.281H214.922V441.078C214.922 435.641 216.375 431.438 219.281 428.469C222.188 425.5 226.297 424.016 231.609 424.016C233.609 424.016 235.594 424.281 237.562 424.812L237.094 431.844C235.625 431.562 234.062 431.422 232.406 431.422C229.594 431.422 227.422 432.25 225.891 433.906C224.359 435.531 223.594 437.875 223.594 440.938V446.281H234.422V452.984H223.594V497H214.922ZM241.734 471.172C241.734 466.203 242.703 461.734 244.641 457.766C246.609 453.797 249.328 450.734 252.797 448.578C256.297 446.422 260.281 445.344 264.75 445.344C271.656 445.344 277.234 447.734 281.484 452.516C285.766 457.297 287.906 463.656 287.906 471.594V472.203C287.906 477.141 286.953 481.578 285.047 485.516C283.172 489.422 280.469 492.469 276.938 494.656C273.438 496.844 269.406 497.938 264.844 497.938C257.969 497.938 252.391 495.547 248.109 490.766C243.859 485.984 241.734 479.656 241.734 471.781V471.172ZM250.453 472.203C250.453 477.828 251.75 482.344 254.344 485.75C256.969 489.156 260.469 490.859 264.844 490.859C269.25 490.859 272.75 489.141 275.344 485.703C277.938 482.234 279.234 477.391 279.234 471.172C279.234 465.609 277.906 461.109 275.25 457.672C272.625 454.203 269.125 452.469 264.75 452.469C260.469 452.469 257.016 454.172 254.391 457.578C251.766 460.984 250.453 465.859 250.453 472.203ZM314.766 464.797L326.016 446.281H336.141L319.547 471.359L336.656 497H326.625L314.906 478.016L303.188 497H293.109L310.219 471.359L293.625 446.281H303.656L314.766 464.797Z"/><g clip-path="url(#clip0)"><path fill="url(#paint0_linear)" d="M370.112 128.832C361.76 109.375 344.816 88.3676 331.548 81.7267C341.01 99.464 347.577 118.513 351.016 138.196L351.051 138.508C329.316 86.0723 292.474 64.8964 262.367 18.8471C260.844 16.5182 259.322 14.1846 257.838 11.7212C256.99 10.3143 256.311 9.04663 255.721 7.87979C254.472 5.53917 253.51 3.06553 252.854 0.509028C252.855 0.391058 252.811 0.276903 252.73 0.188339C252.65 0.0997751 252.538 0.0430011 252.417 0.0288475C252.299 -0.00261713 252.174 -0.00261713 252.055 0.0288475C252.03 0.0288475 251.991 0.0720637 251.961 0.0816673C251.931 0.0912709 251.867 0.134487 251.822 0.153694L251.896 0.0288475C203.611 27.3991 187.219 78.0581 185.731 103.412C166.441 104.692 147.998 111.571 132.808 123.152C131.224 121.853 129.568 120.638 127.848 119.512C123.468 104.669 123.281 88.961 127.307 74.0246C109.575 82.3404 93.8185 94.1294 81.0358 108.646H80.9465C73.328 99.2965 73.8637 68.4689 74.3002 62.0297C72.0464 62.9066 69.8949 64.0124 67.882 65.3285C61.1564 69.9754 54.8691 75.1897 49.0937 80.9104C42.5122 87.3703 36.5012 94.3525 31.1237 101.784V101.813V101.779C18.7662 118.737 10.0002 137.897 5.33195 158.152L5.07403 159.381C4.71196 161.019 3.40749 169.22 3.18429 171.002C3.18429 171.141 3.15453 171.271 3.13965 171.41C1.45698 179.877 0.414273 188.452 0.0198364 197.066V198.026C0.104792 244.597 18.2208 289.444 50.7917 323.716C83.3627 357.987 128.022 379.192 175.952 383.144C223.883 387.096 271.603 373.509 309.692 345.064C347.78 316.619 373.47 275.383 381.689 229.497C382.011 227.096 382.274 224.719 382.562 222.295C386.521 190.612 382.235 158.473 370.092 128.804L370.112 128.832ZM148.551 274.519C149.449 274.937 150.292 275.388 151.214 275.787L151.348 275.868C150.416 275.436 149.483 274.986 148.551 274.519V274.519ZM351.056 138.561V138.383L351.091 138.58L351.056 138.561Z"/><path fill="url(#paint1_radial)" d="M370.112 128.832C361.76 109.375 344.816 88.3676 331.548 81.7267C341.01 99.4641 347.577 118.513 351.016 138.196V138.374L351.051 138.57C365.87 179.621 363.727 224.629 345.069 264.186C323.037 309.951 269.727 356.86 186.251 354.555C96.0793 352.082 16.6208 287.282 1.79053 202.434C-0.912643 189.052 1.79053 182.267 3.14956 171.391C1.29578 179.839 0.261269 188.436 0.0595093 197.071V198.031C0.144465 244.602 18.2605 289.449 50.8314 323.72C83.4023 357.992 128.061 379.197 175.992 383.149C223.923 387.101 271.643 373.513 309.731 345.068C347.82 316.623 373.509 275.388 381.728 229.502C382.051 227.101 382.314 224.724 382.601 222.299C386.561 190.617 382.274 158.478 370.132 128.808L370.112 128.832Z"/><path fill="url(#paint2_radial)" d="M370.112 128.832C361.76 109.375 344.816 88.3676 331.548 81.7267C341.01 99.4641 347.577 118.513 351.016 138.196V138.374L351.051 138.57C365.87 179.621 363.727 224.629 345.069 264.186C323.037 309.951 269.727 356.86 186.251 354.555C96.0793 352.082 16.6208 287.282 1.79053 202.434C-0.912643 189.052 1.79053 182.267 3.14956 171.391C1.29578 179.839 0.261269 188.436 0.0595093 197.071V198.031C0.144465 244.602 18.2605 289.449 50.8314 323.72C83.4023 357.992 128.061 379.197 175.992 383.149C223.923 387.101 271.643 373.513 309.731 345.068C347.82 316.623 373.509 275.388 381.728 229.502C382.051 227.101 382.314 224.724 382.601 222.299C386.561 190.617 382.274 158.478 370.132 128.808L370.112 128.832Z"/><path fill="url(#paint3_radial)" d="M276.666 150.681C277.083 150.964 277.47 151.247 277.862 151.53C273.033 143.241 267.022 135.652 260.006 128.986C200.238 71.1243 244.347 3.56294 251.782 0.10564L251.857 0C203.572 27.3703 187.179 78.0293 185.691 103.383C187.933 103.234 190.155 103.051 192.446 103.051C209.577 103.084 226.394 107.506 241.187 115.871C255.98 124.235 268.221 136.242 276.666 150.671V150.681Z"/><path fill="url(#paint4_radial)" d="M192.546 162.253C192.228 166.882 175.335 182.848 169.427 182.848C114.768 182.848 105.89 214.861 105.89 214.861C108.311 241.819 127.714 264.032 151.17 275.748C152.241 276.286 153.327 276.771 154.413 277.246C156.295 278.053 158.176 278.799 160.058 279.484C168.108 282.242 176.539 283.817 185.071 284.156C280.897 288.507 299.448 173.235 230.301 139.766C246.612 137.711 263.13 141.594 276.652 150.661C268.206 136.232 255.965 124.225 241.172 115.861C226.379 107.497 209.562 103.074 192.431 103.042C190.15 103.042 187.918 103.224 185.676 103.373C166.387 104.653 147.943 111.533 132.753 123.113C135.685 125.514 138.993 128.722 145.962 135.372C159.006 147.814 192.461 160.702 192.536 162.214L192.546 162.253Z"/><path fill="url(#paint5_radial)" d="M192.546 162.253C192.228 166.882 175.335 182.848 169.427 182.848C114.768 182.848 105.89 214.861 105.89 214.861C108.311 241.819 127.714 264.032 151.17 275.748C152.241 276.286 153.327 276.771 154.413 277.246C156.295 278.053 158.176 278.799 160.058 279.484C168.108 282.242 176.539 283.817 185.071 284.156C280.897 288.507 299.448 173.235 230.301 139.766C246.612 137.711 263.13 141.594 276.652 150.661C268.206 136.232 255.965 124.225 241.172 115.861C226.379 107.497 209.562 103.074 192.431 103.042C190.15 103.042 187.918 103.224 185.676 103.373C166.387 104.653 147.943 111.533 132.753 123.113C135.685 125.514 138.993 128.722 145.962 135.372C159.006 147.814 192.461 160.702 192.536 162.214L192.546 162.253Z"/><path fill="url(#paint6_radial)" d="M123.801 116.972C125.358 117.932 126.643 118.768 127.769 119.522C123.389 104.679 123.202 88.9706 127.228 74.0343C109.495 82.35 93.7391 94.1391 80.9565 108.655C81.8939 108.631 109.779 108.146 123.801 116.972V116.972Z"/><path fill="url(#paint7_radial)" d="M1.75579 202.444C16.591 287.292 96.0446 352.116 186.217 354.565C269.693 356.851 323.012 309.937 345.035 264.195C363.692 224.638 365.836 179.631 351.016 138.58V138.402C351.016 138.263 350.986 138.181 351.016 138.225L351.051 138.537C357.871 181.642 335.224 223.385 299.815 251.667L299.705 251.907C230.712 306.312 164.695 284.723 151.353 275.916C150.421 275.484 149.488 275.034 148.556 274.567C108.335 255.955 91.7146 220.499 95.2857 190.055C85.7383 190.192 76.355 187.645 68.2725 182.723C60.1901 177.801 53.7555 170.715 49.7484 162.325C60.3071 156.063 72.3462 152.523 84.7187 152.042C97.0911 151.561 109.385 154.156 120.428 159.578C143.19 169.581 169.092 170.567 192.595 162.325C192.521 160.812 159.066 147.919 146.021 135.483C139.052 128.832 135.744 125.629 132.813 123.224C131.229 121.925 129.573 120.71 127.853 119.584C126.712 118.83 125.427 118.014 123.885 117.034C109.863 108.209 81.9782 108.694 81.0556 108.718H80.9663C73.3478 99.3684 73.8835 68.5408 74.32 62.1016C72.0662 62.9785 69.9147 64.0843 67.9018 65.4005C61.1762 70.0474 54.8889 75.2617 49.1135 80.9823C42.5085 87.424 36.4726 94.3902 31.0691 101.808V101.837V101.803C18.7116 118.761 9.94566 137.921 5.27736 158.176C5.18312 158.555 -1.64674 187.462 1.72107 202.453L1.75579 202.444Z"/><path fill="url(#paint8_radial)" d="M260.001 128.976C267.019 135.649 273.03 143.247 277.857 151.545C278.913 152.318 279.9 153.086 280.739 153.83C324.322 192.725 301.486 247.706 299.785 251.595C335.189 223.356 357.816 181.585 351.021 138.465C329.277 85.9809 292.395 64.805 262.337 18.7557C260.814 16.4269 259.292 14.0932 257.809 11.6299C256.961 10.2229 256.281 8.95526 255.691 7.78842C254.442 5.4478 253.48 2.97416 252.824 0.417658C252.825 0.299688 252.781 0.185533 252.7 0.0969692C252.62 0.00840545 252.508 -0.0483685 252.387 -0.0625221C252.269 -0.0939868 252.144 -0.0939868 252.025 -0.0625221C252.001 -0.0625221 251.961 -0.0193059 251.931 -0.00970234C251.901 -9.87381e-05 251.837 0.0431175 251.792 0.0623247C244.357 3.47641 200.258 71.081 260.026 128.895L260.001 128.976Z"/><path fill="url(#paint9_radial)" d="M280.734 153.85C279.895 153.105 278.908 152.337 277.852 151.564C277.46 151.281 277.073 150.997 276.657 150.714C263.135 141.647 246.617 137.764 230.306 139.819C299.448 173.287 280.897 288.531 185.076 284.209C176.544 283.869 168.113 282.294 160.063 279.537C158.181 278.855 156.3 278.109 154.418 277.299C153.332 276.819 152.246 276.339 151.175 275.801L151.308 275.883C164.671 284.713 230.668 306.288 299.661 251.874L299.77 251.633C301.491 247.744 324.327 192.763 280.724 153.869L280.734 153.85Z"/><path fill="url(#paint10_radial)" d="M105.895 214.833C105.895 214.833 114.768 182.819 169.432 182.819C175.339 182.819 192.248 166.853 192.551 162.224C169.047 170.466 143.146 169.48 120.383 159.477C109.34 154.055 97.0464 151.461 84.674 151.942C72.3016 152.422 60.2625 155.962 49.7037 162.224C53.7109 170.615 60.1455 177.7 68.2279 182.622C76.3103 187.544 85.6937 190.091 95.2411 189.955C91.6799 220.384 108.296 255.835 148.511 274.466C149.409 274.884 150.252 275.335 151.175 275.734C127.699 263.993 108.316 241.79 105.895 214.847V214.833Z"/><path fill="url(#paint11_linear)" d="M370.112 128.832C361.76 109.375 344.816 88.3676 331.548 81.7267C341.01 99.464 347.577 118.513 351.016 138.196L351.051 138.508C329.316 86.0723 292.474 64.8964 262.367 18.8471C260.844 16.5182 259.321 14.1846 257.838 11.7212C256.99 10.3143 256.311 9.04663 255.721 7.87979C254.472 5.53917 253.51 3.06553 252.854 0.509028C252.855 0.391058 252.811 0.276903 252.73 0.188339C252.65 0.0997751 252.538 0.0430011 252.417 0.0288475C252.299 -0.00261713 252.174 -0.00261713 252.055 0.0288475C252.03 0.0288475 251.991 0.0720637 251.961 0.0816673C251.931 0.0912709 251.867 0.134487 251.822 0.153694L251.896 0.0288475C203.611 27.3991 187.219 78.0581 185.731 103.412C187.972 103.263 190.195 103.08 192.486 103.08C209.617 103.112 226.434 107.535 241.226 115.899C256.019 124.264 268.261 136.271 276.706 150.7C263.184 141.633 246.666 137.75 230.355 139.804C299.497 173.273 280.947 288.516 185.125 284.195C176.594 283.855 168.162 282.28 160.112 279.522C158.231 278.841 156.349 278.095 154.468 277.285C153.382 276.805 152.295 276.324 151.224 275.787L151.358 275.868C150.426 275.436 149.493 274.986 148.561 274.519C149.458 274.937 150.302 275.388 151.224 275.787C127.749 264.041 108.365 241.838 105.945 214.9C105.945 214.9 114.818 182.886 169.482 182.886C175.389 182.886 192.298 166.92 192.6 162.291C192.526 160.779 159.071 147.886 146.026 135.449C139.057 128.799 135.749 125.596 132.818 123.19C131.234 121.891 129.578 120.676 127.858 119.55C123.478 104.708 123.291 88.9994 127.317 74.063C109.585 82.3788 93.8283 94.1678 81.0457 108.684H80.9564C73.3379 99.3349 73.8736 68.5073 74.3101 62.0681C72.0563 62.945 69.9048 64.0508 67.8919 65.367C61.1663 70.0138 54.879 75.2282 49.1036 80.9488C42.5221 87.4087 36.5111 94.3909 31.1336 101.822V101.851V101.817C18.776 118.776 10.0101 137.935 5.34184 158.191L5.08392 159.42C4.72184 161.057 3.09994 169.374 2.86682 171.16C1.3833 179.745 0.435882 188.409 0.0297241 197.104V198.065C0.11468 244.635 18.2307 289.483 50.8016 323.754C83.3725 358.025 128.031 379.23 175.962 383.182C223.893 387.135 271.613 373.547 309.702 345.102C347.79 316.657 373.48 275.421 381.699 229.536C382.021 227.135 382.284 224.758 382.572 222.333C386.531 190.65 382.245 158.512 370.102 128.842L370.112 128.832ZM351.041 138.393L351.076 138.59L351.041 138.393Z"/></g><defs><linearGradient id="paint0_linear" x1="344.668" x2="35.509" y1="59.475" y2="367.585" gradientUnits="userSpaceOnUse"><stop offset=".048" stop-color="#FFF44F"/><stop offset=".111" stop-color="#FFE847"/><stop offset=".225" stop-color="#FFC830"/><stop offset=".368" stop-color="#FF980E"/><stop offset=".401" stop-color="#FF8B16"/><stop offset=".462" stop-color="#FF672A"/><stop offset=".534" stop-color="#FF3647"/><stop offset=".705" stop-color="#E31587"/></linearGradient><radialGradient id="paint1_radial" cx="0" cy="0" r="1" gradientTransform="translate(332.317 43.2163) scale(400.765 387.985)" gradientUnits="userSpaceOnUse"><stop offset=".129" stop-color="#FFBD4F"/><stop offset=".186" stop-color="#FFAC31"/><stop offset=".247" stop-color="#FF9D17"/><stop offset=".283" stop-color="#FF980E"/><stop offset=".403" stop-color="#FF563B"/><stop offset=".467" stop-color="#FF3750"/><stop offset=".71" stop-color="#F5156C"/><stop offset=".782" stop-color="#EB0878"/><stop offset=".86" stop-color="#E50080"/></radialGradient><radialGradient id="paint2_radial" cx="0" cy="0" r="1" gradientTransform="translate(183.518 201.676) scale(400.765 387.985)" gradientUnits="userSpaceOnUse"><stop offset=".3" stop-color="#960E18"/><stop offset=".351" stop-color="#B11927" stop-opacity=".74"/><stop offset=".435" stop-color="#DB293D" stop-opacity=".343"/><stop offset=".497" stop-color="#F5334B" stop-opacity=".094"/><stop offset=".53" stop-color="#FF3750" stop-opacity="0"/></radialGradient><radialGradient id="paint3_radial" cx="0" cy="0" r="1" gradientTransform="translate(233.118 -43.2162) scale(290.306 281.049)" gradientUnits="userSpaceOnUse"><stop offset=".132" stop-color="#FFF44F"/><stop offset=".252" stop-color="#FFDC3E"/><stop offset=".506" stop-color="#FF9D12"/><stop offset=".526" stop-color="#FF980E"/></radialGradient><radialGradient id="paint4_radial" cx="0" cy="0" r="1" gradientTransform="translate(138.879 302.513) scale(190.81 184.725)" gradientUnits="userSpaceOnUse"><stop offset=".353" stop-color="#3A8EE6"/><stop offset=".472" stop-color="#5C79F0"/><stop offset=".669" stop-color="#9059FF"/><stop offset="1" stop-color="#C139E6"/></radialGradient><radialGradient id="paint5_radial" cx="0" cy="0" r="1" gradientTransform="translate(202.902 168.37) rotate(-13.1735) scale(101.008 114.883)" gradientUnits="userSpaceOnUse"><stop offset=".206" stop-color="#9059FF" stop-opacity="0"/><stop offset=".278" stop-color="#8C4FF3" stop-opacity=".064"/><stop offset=".747" stop-color="#7716A8" stop-opacity=".45"/><stop offset=".975" stop-color="#6E008B" stop-opacity=".6"/></radialGradient><radialGradient id="paint6_radial" cx="0" cy="0" r="1" gradientTransform="translate(178.559 28.8109) scale(137.292 132.914)" gradientUnits="userSpaceOnUse"><stop stop-color="#FFE226"/><stop offset=".121" stop-color="#FFDB27"/><stop offset=".295" stop-color="#FFC82A"/><stop offset=".502" stop-color="#FFA930"/><stop offset=".732" stop-color="#FF7E37"/><stop offset=".792" stop-color="#FF7139"/></radialGradient><radialGradient id="paint7_radial" cx="0" cy="0" r="1" gradientTransform="translate(287.678 -57.6217) scale(585.771 567.093)" gradientUnits="userSpaceOnUse"><stop offset=".113" stop-color="#FFF44F"/><stop offset=".456" stop-color="#FF980E"/><stop offset=".622" stop-color="#FF5634"/><stop offset=".716" stop-color="#FF3647"/><stop offset=".904" stop-color="#E31587"/></radialGradient><radialGradient id="paint8_radial" cx="0" cy="0" r="1" gradientTransform="translate(238.991 -26.1795) rotate(83.7791) scale(415.727 281.617)" gradientUnits="userSpaceOnUse"><stop stop-color="#FFF44F"/><stop offset=".06" stop-color="#FFE847"/><stop offset=".168" stop-color="#FFC830"/><stop offset=".304" stop-color="#FF980E"/><stop offset=".356" stop-color="#FF8B16"/><stop offset=".455" stop-color="#FF672A"/><stop offset=".57" stop-color="#FF3647"/><stop offset=".737" stop-color="#E31587"/></radialGradient><radialGradient id="paint9_radial" cx="0" cy="0" r="1" gradientTransform="translate(178.559 76.8288) scale(365.648 353.989)" gradientUnits="userSpaceOnUse"><stop offset=".137" stop-color="#FFF44F"/><stop offset=".48" stop-color="#FF980E"/><stop offset=".592" stop-color="#FF5634"/><stop offset=".655" stop-color="#FF3647"/><stop offset=".904" stop-color="#E31587"/></radialGradient><radialGradient id="paint10_radial" cx="0" cy="0" r="1" gradientTransform="translate(272.798 96.0361) scale(400.219 387.457)" gradientUnits="userSpaceOnUse"><stop offset=".094" stop-color="#FFF44F"/><stop offset=".231" stop-color="#FFE141"/><stop offset=".509" stop-color="#FFAF1E"/><stop offset=".626" stop-color="#FF980E"/></radialGradient><linearGradient id="paint11_linear" x1="340.799" x2="78.088" y1="57.89" y2="329.304" gradientUnits="userSpaceOnUse"><stop offset=".167" stop-color="#FFF44F" stop-opacity=".8"/><stop offset=".266" stop-color="#FFF44F" stop-opacity=".634"/><stop offset=".489" stop-color="#FFF44F" stop-opacity=".217"/><stop offset=".6" stop-color="#FFF44F" stop-opacity="0"/></linearGradient><clipPath id="clip0"><rect width="384" height="384" fill="#fff"/></clipPath></defs></svg>