<svg width="384" height="497" viewBox="0 0 384 497" fill="none" xmlns="http://www.w3.org/2000/svg">
<path d="M23.3281 473V404.75H42.5938C48.5312 404.75 53.7812 406.062 58.3438 408.688C62.9062 411.312 66.4219 415.047 68.8906 419.891C71.3906 424.734 72.6562 430.297 72.6875 436.578V440.938C72.6875 447.375 71.4375 453.016 68.9375 457.859C66.4688 462.703 62.9219 466.422 58.2969 469.016C53.7031 471.609 48.3438 472.938 42.2188 473H23.3281ZM32.3281 412.156V465.641H41.7969C48.7344 465.641 54.125 463.484 57.9688 459.172C61.8438 454.859 63.7812 448.719 63.7812 440.75V436.766C63.7812 429.016 61.9531 423 58.2969 418.719C54.6719 414.406 49.5156 412.219 42.8281 412.156H32.3281ZM106.016 473.938C99.1406 473.938 93.5469 471.688 89.2344 467.188C84.9219 462.656 82.7656 456.609 82.7656 449.047V447.453C82.7656 442.422 83.7188 437.938 85.625 434C87.5625 430.031 90.25 426.938 93.6875 424.719C97.1562 422.469 100.906 421.344 104.938 421.344C111.531 421.344 116.656 423.516 120.312 427.859C123.969 432.203 125.797 438.422 125.797 446.516V450.125H91.4375C91.5625 455.125 93.0156 459.172 95.7969 462.266C98.6094 465.328 102.172 466.859 106.484 466.859C109.547 466.859 112.141 466.234 114.266 464.984C116.391 463.734 118.25 462.078 119.844 460.016L125.141 464.141C120.891 470.672 114.516 473.938 106.016 473.938ZM104.938 428.469C101.438 428.469 98.5 429.75 96.125 432.312C93.75 434.844 92.2812 438.406 91.7188 443H117.125V442.344C116.875 437.938 115.688 434.531 113.562 432.125C111.438 429.688 108.562 428.469 104.938 428.469ZM165.406 459.547C165.406 457.203 164.516 455.391 162.734 454.109C160.984 452.797 157.906 451.672 153.5 450.734C149.125 449.797 145.641 448.672 143.047 447.359C140.484 446.047 138.578 444.484 137.328 442.672C136.109 440.859 135.5 438.703 135.5 436.203C135.5 432.047 137.25 428.531 140.75 425.656C144.281 422.781 148.781 421.344 154.25 421.344C160 421.344 164.656 422.828 168.219 425.797C171.812 428.766 173.609 432.562 173.609 437.188H164.891C164.891 434.812 163.875 432.766 161.844 431.047C159.844 429.328 157.312 428.469 154.25 428.469C151.094 428.469 148.625 429.156 146.844 430.531C145.062 431.906 144.172 433.703 144.172 435.922C144.172 438.016 145 439.594 146.656 440.656C148.312 441.719 151.297 442.734 155.609 443.703C159.953 444.672 163.469 445.828 166.156 447.172C168.844 448.516 170.828 450.141 172.109 452.047C173.422 453.922 174.078 456.219 174.078 458.938C174.078 463.469 172.266 467.109 168.641 469.859C165.016 472.578 160.312 473.938 154.531 473.938C150.469 473.938 146.875 473.219 143.75 471.781C140.625 470.344 138.172 468.344 136.391 465.781C134.641 463.188 133.766 460.391 133.766 457.391H142.438C142.594 460.297 143.75 462.609 145.906 464.328C148.094 466.016 150.969 466.859 154.531 466.859C157.812 466.859 160.438 466.203 162.406 464.891C164.406 463.547 165.406 461.766 165.406 459.547ZM199.531 449.516L194.094 455.188V473H185.422V401H194.094V444.547L198.734 438.969L214.531 422.281H225.078L205.344 443.469L227.375 473H217.203L199.531 449.516ZM245.797 410V422.281H255.266V428.984H245.797V460.438C245.797 462.469 246.219 464 247.062 465.031C247.906 466.031 249.344 466.531 251.375 466.531C252.375 466.531 253.75 466.344 255.5 465.969V473C253.219 473.625 251 473.938 248.844 473.938C244.969 473.938 242.047 472.766 240.078 470.422C238.109 468.078 237.125 464.75 237.125 460.438V428.984H227.891V422.281H237.125V410H245.797ZM262.203 447.172C262.203 442.203 263.172 437.734 265.109 433.766C267.078 429.797 269.797 426.734 273.266 424.578C276.766 422.422 280.75 421.344 285.219 421.344C292.125 421.344 297.703 423.734 301.953 428.516C306.234 433.297 308.375 439.656 308.375 447.594V448.203C308.375 453.141 307.422 457.578 305.516 461.516C303.641 465.422 300.938 468.469 297.406 470.656C293.906 472.844 289.875 473.938 285.312 473.938C278.438 473.938 272.859 471.547 268.578 466.766C264.328 461.984 262.203 455.656 262.203 447.781V447.172ZM270.922 448.203C270.922 453.828 272.219 458.344 274.812 461.75C277.438 465.156 280.938 466.859 285.312 466.859C289.719 466.859 293.219 465.141 295.812 461.703C298.406 458.234 299.703 453.391 299.703 447.172C299.703 441.609 298.375 437.109 295.719 433.672C293.094 430.203 289.594 428.469 285.219 428.469C280.938 428.469 277.484 430.172 274.859 433.578C272.234 436.984 270.922 441.859 270.922 448.203ZM362.094 448.203C362.094 455.922 360.328 462.141 356.797 466.859C353.266 471.578 348.484 473.938 342.453 473.938C336.297 473.938 331.453 471.984 327.922 468.078V492.5H319.25V422.281H327.172L327.594 427.906C331.125 423.531 336.031 421.344 342.312 421.344C348.406 421.344 353.219 423.641 356.75 428.234C360.312 432.828 362.094 439.219 362.094 447.406V448.203ZM353.422 447.219C353.422 441.5 352.203 436.984 349.766 433.672C347.328 430.359 343.984 428.703 339.734 428.703C334.484 428.703 330.547 431.031 327.922 435.688V459.922C330.516 464.547 334.484 466.859 339.828 466.859C343.984 466.859 347.281 465.219 349.719 461.938C352.188 458.625 353.422 453.719 353.422 447.219Z" fill="white"/>
<path d="M30.992 55.8051H353.012C361.43 55.8051 368.254 62.6293 368.254 71.0471V312.957C368.254 321.371 361.43 328.195 353.012 328.195H30.992C22.574 328.195 15.75 321.371 15.75 312.957V71.0471C15.75 62.6291 22.5742 55.8051 30.992 55.8051V55.8051Z" fill="url(#paint0_linear)"/>
<path opacity="0.3" d="M149.77 279.74C146.446 279.74 143.77 282.416 143.77 285.74V299.373C143.77 302.697 146.446 305.373 149.77 305.373H161.884C165.208 305.373 167.884 302.697 167.884 299.373V285.74C167.884 282.416 165.208 279.74 161.884 279.74H149.77ZM185.938 279.74C182.614 279.74 179.938 282.416 179.938 285.74V299.373C179.938 302.697 182.614 305.373 185.938 305.373H198.051C201.375 305.373 204.051 302.697 204.051 299.373V285.74C204.051 282.416 201.375 279.74 198.051 279.74H185.938ZM222.102 279.74C218.778 279.74 216.102 282.416 216.102 285.74V299.373C216.102 302.697 218.778 305.373 222.102 305.373H234.215C237.539 305.373 240.215 302.697 240.215 299.373V285.74C240.215 282.416 237.539 279.74 234.215 279.74H222.102Z" fill="black"/>
<path opacity="0.3" d="M15.75 297.952V312.952C15.75 321.367 22.5737 328.189 30.9915 328.189H353.012C361.43 328.189 368.253 321.366 368.253 312.952V297.952C368.253 306.367 361.429 313.189 353.012 313.189H30.9915C22.5735 313.189 15.75 306.366 15.75 297.952V297.952Z" fill="black"/>
<path opacity="0.2" d="M30.9915 55.8044C22.5735 55.8044 15.75 62.6282 15.75 71.0459V78.5459C15.75 70.1279 22.5737 63.3044 30.9915 63.3044H353.012C361.43 63.3044 368.253 70.1282 368.253 78.5459V71.0459C368.253 62.6279 361.429 55.8044 353.012 55.8044H30.9915Z" fill="white"/>
<path d="M161.883 272.24H149.77C146.456 272.24 143.77 274.926 143.77 278.24V291.873C143.77 295.187 146.456 297.873 149.77 297.873H161.883C165.197 297.873 167.883 295.187 167.883 291.873V278.24C167.883 274.926 165.197 272.24 161.883 272.24Z" fill="white"/>
<path d="M198.053 272.24H185.94C182.626 272.24 179.94 274.926 179.94 278.24V291.873C179.94 295.187 182.626 297.873 185.94 297.873H198.053C201.367 297.873 204.053 295.187 204.053 291.873V278.24C204.053 274.926 201.367 272.24 198.053 272.24Z" fill="white"/>
<path d="M234.223 272.24H222.11C218.796 272.24 216.11 274.926 216.11 278.24V291.873C216.11 295.187 218.796 297.873 222.11 297.873H234.223C237.537 297.873 240.223 295.187 240.223 291.873V278.24C240.223 274.926 237.537 272.24 234.223 272.24Z" fill="white"/>
<defs>
<linearGradient id="paint0_linear" x1="62.316" y1="287.46" x2="427.89" y2="24.9376" gradientUnits="userSpaceOnUse">
<stop stop-color="#357AF0"/>
<stop offset="1" stop-color="#8C42AB"/>
</linearGradient>
</defs>
</svg>
