<svg xmlns="http://www.w3.org/2000/svg" width="493" height="521" fill="none" viewBox="0 0 493 521"><path fill="#fff" d="M45.5938 466.859H16.9531V497H7.95312V428.75H50.2344V436.156H16.9531V459.5H45.5938V466.859ZM69.0781 497H60.4062V446.281H69.0781V497ZM59.7031 432.828C59.7031 431.422 60.125 430.234 60.9688 429.266C61.8438 428.297 63.125 427.812 64.8125 427.812C66.5 427.812 67.7812 428.297 68.6562 429.266C69.5312 430.234 69.9688 431.422 69.9688 432.828C69.9688 434.234 69.5312 435.406 68.6562 436.344C67.7812 437.281 66.5 437.75 64.8125 437.75C63.125 437.75 61.8438 437.281 60.9688 436.344C60.125 435.406 59.7031 434.234 59.7031 432.828ZM92.4219 497H83.75V425H92.4219V497ZM127.391 497.938C120.516 497.938 114.922 495.688 110.609 491.188C106.297 486.656 104.141 480.609 104.141 473.047V471.453C104.141 466.422 105.094 461.938 107 458C108.938 454.031 111.625 450.938 115.062 448.719C118.531 446.469 122.281 445.344 126.312 445.344C132.906 445.344 138.031 447.516 141.688 451.859C145.344 456.203 147.172 462.422 147.172 470.516V474.125H112.812C112.938 479.125 114.391 483.172 117.172 486.266C119.984 489.328 123.547 490.859 127.859 490.859C130.922 490.859 133.516 490.234 135.641 488.984C137.766 487.734 139.625 486.078 141.219 484.016L146.516 488.141C142.266 494.672 135.891 497.938 127.391 497.938ZM126.312 452.469C122.812 452.469 119.875 453.75 117.5 456.312C115.125 458.844 113.656 462.406 113.094 467H138.5V466.344C138.25 461.938 137.062 458.531 134.938 456.125C132.812 453.688 129.938 452.469 126.312 452.469ZM202.531 466.578C194.812 464.359 189.188 461.641 185.656 458.422C182.156 455.172 180.406 451.172 180.406 446.422C180.406 441.047 182.547 436.609 186.828 433.109C191.141 429.578 196.734 427.812 203.609 427.812C208.297 427.812 212.469 428.719 216.125 430.531C219.812 432.344 222.656 434.844 224.656 438.031C226.688 441.219 227.703 444.703 227.703 448.484H218.656C218.656 444.359 217.344 441.125 214.719 438.781C212.094 436.406 208.391 435.219 203.609 435.219C199.172 435.219 195.703 436.203 193.203 438.172C190.734 440.109 189.5 442.812 189.5 446.281C189.5 449.062 190.672 451.422 193.016 453.359C195.391 455.266 199.406 457.016 205.062 458.609C210.75 460.203 215.188 461.969 218.375 463.906C221.594 465.812 223.969 468.047 225.5 470.609C227.062 473.172 227.844 476.188 227.844 479.656C227.844 485.188 225.688 489.625 221.375 492.969C217.062 496.281 211.297 497.938 204.078 497.938C199.391 497.938 195.016 497.047 190.953 495.266C186.891 493.453 183.75 490.984 181.531 487.859C179.344 484.734 178.25 481.188 178.25 477.219H187.297C187.297 481.344 188.812 484.609 191.844 487.016C194.906 489.391 198.984 490.578 204.078 490.578C208.828 490.578 212.469 489.609 215 487.672C217.531 485.734 218.797 483.094 218.797 479.75C218.797 476.406 217.625 473.828 215.281 472.016C212.938 470.172 208.688 468.359 202.531 466.578ZM254.656 484.297L266.469 446.281H275.75L255.359 504.828C252.203 513.266 247.188 517.484 240.312 517.484L238.672 517.344L235.438 516.734V509.703L237.781 509.891C240.719 509.891 243 509.297 244.625 508.109C246.281 506.922 247.641 504.75 248.703 501.594L250.625 496.438L232.531 446.281H242L254.656 484.297ZM313.062 483.547C313.062 481.203 312.172 479.391 310.391 478.109C308.641 476.797 305.562 475.672 301.156 474.734C296.781 473.797 293.297 472.672 290.703 471.359C288.141 470.047 286.234 468.484 284.984 466.672C283.766 464.859 283.156 462.703 283.156 460.203C283.156 456.047 284.906 452.531 288.406 449.656C291.938 446.781 296.438 445.344 301.906 445.344C307.656 445.344 312.312 446.828 315.875 449.797C319.469 452.766 321.266 456.562 321.266 461.188H312.547C312.547 458.812 311.531 456.766 309.5 455.047C307.5 453.328 304.969 452.469 301.906 452.469C298.75 452.469 296.281 453.156 294.5 454.531C292.719 455.906 291.828 457.703 291.828 459.922C291.828 462.016 292.656 463.594 294.312 464.656C295.969 465.719 298.953 466.734 303.266 467.703C307.609 468.672 311.125 469.828 313.812 471.172C316.5 472.516 318.484 474.141 319.766 476.047C321.078 477.922 321.734 480.219 321.734 482.938C321.734 487.469 319.922 491.109 316.297 493.859C312.672 496.578 307.969 497.938 302.188 497.938C298.125 497.938 294.531 497.219 291.406 495.781C288.281 494.344 285.828 492.344 284.047 489.781C282.297 487.188 281.422 484.391 281.422 481.391H290.094C290.25 484.297 291.406 486.609 293.562 488.328C295.75 490.016 298.625 490.859 302.188 490.859C305.469 490.859 308.094 490.203 310.062 488.891C312.062 487.547 313.062 485.766 313.062 483.547ZM344.797 434V446.281H354.266V452.984H344.797V484.438C344.797 486.469 345.219 488 346.062 489.031C346.906 490.031 348.344 490.531 350.375 490.531C351.375 490.531 352.75 490.344 354.5 489.969V497C352.219 497.625 350 497.938 347.844 497.938C343.969 497.938 341.047 496.766 339.078 494.422C337.109 492.078 336.125 488.75 336.125 484.438V452.984H326.891V446.281H336.125V434H344.797ZM385.484 497.938C378.609 497.938 373.016 495.688 368.703 491.188C364.391 486.656 362.234 480.609 362.234 473.047V471.453C362.234 466.422 363.188 461.938 365.094 458C367.031 454.031 369.719 450.938 373.156 448.719C376.625 446.469 380.375 445.344 384.406 445.344C391 445.344 396.125 447.516 399.781 451.859C403.438 456.203 405.266 462.422 405.266 470.516V474.125H370.906C371.031 479.125 372.484 483.172 375.266 486.266C378.078 489.328 381.641 490.859 385.953 490.859C389.016 490.859 391.609 490.234 393.734 488.984C395.859 487.734 397.719 486.078 399.312 484.016L404.609 488.141C400.359 494.672 393.984 497.938 385.484 497.938ZM384.406 452.469C380.906 452.469 377.969 453.75 375.594 456.312C373.219 458.844 371.75 462.406 371.188 467H396.594V466.344C396.344 461.938 395.156 458.531 393.031 456.125C390.906 453.688 388.031 452.469 384.406 452.469ZM423.5 446.281L423.734 451.906C427.453 447.531 432.469 445.344 438.781 445.344C445.875 445.344 450.703 448.062 453.266 453.5C454.953 451.062 457.141 449.094 459.828 447.594C462.547 446.094 465.75 445.344 469.438 445.344C480.562 445.344 486.219 451.234 486.406 463.016V497H477.734V463.531C477.734 459.906 476.906 457.203 475.25 455.422C473.594 453.609 470.812 452.703 466.906 452.703C463.688 452.703 461.016 453.672 458.891 455.609C456.766 457.516 455.531 460.094 455.188 463.344V497H446.469V463.766C446.469 456.391 442.859 452.703 435.641 452.703C429.953 452.703 426.062 455.125 423.969 459.969V497H415.297V446.281H423.5Z"/><path fill="#000" stroke="#000" stroke-width="10" d="M123.559 23.8317C114.844 23.8317 107.778 30.0231 107.778 37.6597V40.2173C107.776 40.3141 107.771 40.41 107.771 40.5073V344.387C107.771 353.102 114.837 360.168 123.552 360.168H368.442C377.156 360.168 384.223 353.102 384.223 344.387V304.255C384.225 304.17 384.23 304.086 384.23 304V37.6604C384.23 30.0238 377.162 23.8324 368.448 23.8324L123.559 23.8317Z" opacity=".2"/><path fill="#000" d="M123.558 23.8317H368.448C377.163 23.8317 384.229 30.8981 384.229 39.6087V343.489C384.229 352.203 377.163 359.27 368.448 359.27H123.558C114.843 359.27 107.777 352.203 107.777 343.489V39.6087C107.777 30.8978 114.844 23.8317 123.558 23.8317V23.8317Z"/><path fill="#fff" d="M128.387 329.017H244.617C247.011 329.017 248.953 330.958 248.953 333.353V341.919C248.953 344.313 247.011 346.259 244.617 346.259H128.387C125.988 346.259 124.047 344.313 124.047 341.919V333.353C124.047 330.958 125.988 329.017 128.387 329.017Z"/><path fill="#fff" d="M123.566 22.9337H368.456C377.171 22.9337 384.237 29.1251 384.237 36.7617V303.102C384.237 310.742 377.171 316.934 368.456 316.934H123.566C114.851 316.934 107.785 310.742 107.785 303.102V36.7617C107.785 29.125 114.851 22.9337 123.566 22.9337V22.9337Z"/><path fill="#fff" d="M329.974 337.607C329.974 341.876 326.513 345.337 322.243 345.337C317.97 345.337 314.509 341.876 314.509 337.607C314.509 333.337 317.97 329.876 322.243 329.876C326.513 329.876 329.974 333.337 329.974 337.607Z"/><path fill="#fff" d="M353.854 337.607C353.854 341.876 350.389 345.337 346.119 345.337C341.85 345.337 338.389 341.876 338.389 337.607C338.389 333.337 341.85 329.876 346.119 329.876C350.389 329.876 353.854 333.337 353.854 337.607Z"/><path stroke="#000" stroke-linecap="round" stroke-linejoin="round" stroke-width="21.924" d="M316.954 169.932C316.954 209.112 285.192 240.873 246.012 240.873C206.832 240.873 175.07 209.112 175.07 169.932C175.07 130.752 206.832 98.9899 246.012 98.9899C285.192 98.9899 316.954 130.752 316.954 169.932Z"/><path fill="#000" d="M246.014 98.2717C202.391 98.2717 166.852 133.811 166.852 177.434C166.852 221.057 202.391 256.596 246.014 256.596C289.637 256.596 325.176 221.057 325.176 177.434C325.176 133.811 289.637 98.2717 246.014 98.2717V98.2717ZM246.014 114.713C280.75 114.713 308.735 142.697 308.735 177.434C308.735 212.171 280.751 240.155 246.014 240.155C211.278 240.155 183.293 212.171 183.293 177.434C183.293 142.697 211.277 114.713 246.014 114.713Z" opacity=".3"/><path fill="#000" d="M370.314 308.616C373.412 308.616 375.923 306.104 375.923 303.007C375.923 299.909 373.412 297.398 370.314 297.398C367.216 297.398 364.705 299.909 364.705 303.007C364.705 306.104 367.216 308.616 370.314 308.616Z" opacity=".3"/><path fill="#000" d="M121.886 42.2656C124.984 42.2656 127.495 39.7544 127.495 36.6567C127.495 33.559 124.984 31.0478 121.886 31.0478C118.788 31.0478 116.277 33.559 116.277 36.6567C116.277 39.7544 118.788 42.2656 121.886 42.2656Z" opacity=".3"/><path fill="#000" d="M370.314 42.4676C373.412 42.4676 375.923 39.9564 375.923 36.8587C375.923 33.7609 373.412 31.2498 370.314 31.2498C367.216 31.2498 364.705 33.7609 364.705 36.8587C364.705 39.9564 367.216 42.4676 370.314 42.4676Z" opacity=".3"/><path fill="#000" d="M121.715 308.616C124.813 308.616 127.324 306.104 127.324 303.007C127.324 299.909 124.813 297.398 121.715 297.398C118.617 297.398 116.106 299.909 116.106 303.007C116.106 306.104 118.617 308.616 121.715 308.616Z" opacity=".3"/></svg>