<svg xmlns="http://www.w3.org/2000/svg" width="174" height="174" fill="none" viewBox="0 0 174 174"><path fill="#fff" d="M130.5 54.375L174 87L130.5 119.625V97.875H87V76.125H130.5V54.375Z"/><path fill="#fff" d="M87 21.75C69.6946 21.75 53.098 28.6245 40.8613 40.8613C28.6245 53.098 21.75 69.6946 21.75 87C21.75 104.305 28.6245 120.902 40.8613 133.139C53.098 145.375 69.6946 152.25 87 152.25C104.3 152.235 120.885 145.35 133.11 133.11L117.733 117.733C109.586 125.894 98.5316 130.486 87 130.5C75.4631 130.5 64.3987 125.917 56.2409 117.759C48.083 109.601 43.5 98.5369 43.5 87C43.5 75.4631 48.083 64.3987 56.2409 56.2409C64.3987 48.083 75.4631 43.5 87 43.5C98.5312 43.5134 109.585 48.1048 117.733 56.2651L133.11 40.8878C120.885 28.6484 104.299 21.7647 87 21.75Z"/></svg>