<svg xmlns="http://www.w3.org/2000/svg" width="384" height="521" fill="none" viewBox="0 0 384 521"><path fill="#E6E6E6" d="M177.625 360.383C140.703 357.852 110.645 347.77 97.6562 333.559C93.0312 328.496 91.7812 325.789 90.4102 317.867C86.6289 296.012 49.4648 96.0703 48.4961 92.3516C41.8398 66.8633 68.9883 43.7812 120.492 31.1328C132.285 28.2383 150.207 25.3711 164.43 24.1016C177.195 22.9648 206.832 22.9648 219.602 24.1016C281.906 29.6562 328.543 51.1328 335.57 77.5039C336.93 82.5977 336.812 86.4883 335.094 93.5312C333.238 101.148 293.168 318.344 293.168 320.797C293.168 321.793 292.152 324.637 290.91 327.121C284.617 339.719 263.508 350.883 235 356.691C219.133 359.926 194.277 361.523 177.625 360.383Z"/><path fill="#CCC" d="M175.398 128.164C130.465 125.926 88.9453 113.48 71.0156 96.8828C66.4648 92.668 62.8398 86.6602 62.8516 83.3555C62.8711 77.7617 69.75 69.4063 79.3945 63.25C120.68 36.8985 206.117 29.8828 268.746 47.6992C290.379 53.8516 306.727 62.2383 315.758 71.8125C321.859 78.2852 323.012 82.3945 320.359 88.2383C314.125 101.969 286.367 115.949 251.438 122.949C237.379 125.766 223.996 127.363 207.414 128.207C192.898 128.949 191.059 128.945 175.398 128.164Z"/><path fill="#F8DE68" d="M107.738 110.551C89.6719 104.805 89.3516 103.973 89.1328 96.0859C89.0391 92.5781 88.9062 89.1172 88.8437 88.4023C88.6953 86.7344 125.352 60.7266 127.969 60.6445C129.047 60.6094 131.336 61.1172 133.051 61.7695L136.172 62.9531L133.141 66.7187C120.777 82.0664 113.773 91.9648 113.773 94.082C113.773 95.4492 115.613 100.605 117.863 105.547C120.117 110.484 121.816 114.668 121.641 114.844C121.469 115.016 114.984 112.852 107.738 110.551Z"/><path fill="#1C959B" fill-opacity=".996" d="M282.109 105.129C282.109 102.801 279.734 99.1914 273.488 92.0234C263.797 80.9102 263.652 81.5391 276.316 79.7969C281.855 79.0352 282.57 79.2227 285.809 82.3008C292.105 88.2813 301.727 100.156 300.223 101.039C298.859 102.133 281.41 109.543 279.777 109.543C279.117 109.543 282.109 106.898 282.109 105.129Z"/><path fill="#fff" d="M161.848 121.543C148.688 120.027 125.129 115.656 121.711 114.902C118.539 114.203 117.746 111.641 114.602 103.832C112.52 98.6562 110.812 93.9297 110.812 93.3359C110.812 92.2695 126.527 72.0859 139.297 56.7539C142.887 52.4453 146.672 48.9063 147.703 48.8945C150.375 48.8555 197.488 54.5547 200.805 55.3125C202.652 55.7344 204.348 57.6875 205.938 61.2109C207.242 64.1094 209.059 66.7617 209.969 67.1055C210.883 67.4492 218.242 66.3672 226.324 64.707C234.406 63.043 242.09 61.6836 243.395 61.6836C246.352 61.6836 284.098 100.551 284.098 103.594C284.098 106.066 283.914 108.32 280.723 109.379C277.695 110.379 272.637 112.363 265.703 114.043C241.102 120 228.984 122.238 196.062 122.605C179.418 122.793 164.133 121.805 161.848 121.543Z"/><path fill="#fff" d="M127.094 436.156H105.156V497H96.2031V436.156H74.3125V428.75H127.094V436.156ZM156.812 454.062C155.5 453.844 154.078 453.734 152.547 453.734C146.859 453.734 143 456.156 140.969 461V497H132.297V446.281H140.734L140.875 452.141C143.719 447.609 147.75 445.344 152.969 445.344C154.656 445.344 155.938 445.562 156.812 446V454.062ZM194.266 497C193.766 496 193.359 494.219 193.047 491.656C189.016 495.844 184.203 497.938 178.609 497.938C173.609 497.938 169.5 496.531 166.281 493.719C163.094 490.875 161.5 487.281 161.5 482.938C161.5 477.656 163.5 473.562 167.5 470.656C171.531 467.719 177.188 466.25 184.469 466.25H192.906V462.266C192.906 459.234 192 456.828 190.188 455.047C188.375 453.234 185.703 452.328 182.172 452.328C179.078 452.328 176.484 453.109 174.391 454.672C172.297 456.234 171.25 458.125 171.25 460.344H162.531C162.531 457.812 163.422 455.375 165.203 453.031C167.016 450.656 169.453 448.781 172.516 447.406C175.609 446.031 179 445.344 182.688 445.344C188.531 445.344 193.109 446.812 196.422 449.75C199.734 452.656 201.453 456.672 201.578 461.797V485.141C201.578 489.797 202.172 493.5 203.359 496.25V497H194.266ZM179.875 490.391C182.594 490.391 185.172 489.688 187.609 488.281C190.047 486.875 191.812 485.047 192.906 482.797V472.391H186.109C175.484 472.391 170.172 475.5 170.172 481.719C170.172 484.438 171.078 486.562 172.891 488.094C174.703 489.625 177.031 490.391 179.875 490.391ZM244.703 483.547C244.703 481.203 243.812 479.391 242.031 478.109C240.281 476.797 237.203 475.672 232.797 474.734C228.422 473.797 224.938 472.672 222.344 471.359C219.781 470.047 217.875 468.484 216.625 466.672C215.406 464.859 214.797 462.703 214.797 460.203C214.797 456.047 216.547 452.531 220.047 449.656C223.578 446.781 228.078 445.344 233.547 445.344C239.297 445.344 243.953 446.828 247.516 449.797C251.109 452.766 252.906 456.562 252.906 461.188H244.188C244.188 458.812 243.172 456.766 241.141 455.047C239.141 453.328 236.609 452.469 233.547 452.469C230.391 452.469 227.922 453.156 226.141 454.531C224.359 455.906 223.469 457.703 223.469 459.922C223.469 462.016 224.297 463.594 225.953 464.656C227.609 465.719 230.594 466.734 234.906 467.703C239.25 468.672 242.766 469.828 245.453 471.172C248.141 472.516 250.125 474.141 251.406 476.047C252.719 477.922 253.375 480.219 253.375 482.938C253.375 487.469 251.562 491.109 247.938 493.859C244.312 496.578 239.609 497.938 233.828 497.938C229.766 497.938 226.172 497.219 223.047 495.781C219.922 494.344 217.469 492.344 215.688 489.781C213.938 487.188 213.062 484.391 213.062 481.391H221.734C221.891 484.297 223.047 486.609 225.203 488.328C227.391 490.016 230.266 490.859 233.828 490.859C237.109 490.859 239.734 490.203 241.703 488.891C243.703 487.547 244.703 485.766 244.703 483.547ZM273.344 452.422C277.188 447.703 282.188 445.344 288.344 445.344C299.062 445.344 304.469 451.391 304.562 463.484V497H295.891V463.438C295.859 459.781 295.016 457.078 293.359 455.328C291.734 453.578 289.188 452.703 285.719 452.703C282.906 452.703 280.438 453.453 278.312 454.953C276.188 456.453 274.531 458.422 273.344 460.859V497H264.672V425H273.344V452.422Z"/></svg>